<svg width="224" height="196" viewBox="0 0 224 196" fill="none" xmlns="http://www.w3.org/2000/svg">
<path d="M22.4668 2.5H185.027C190.144 2.5 196.063 2.50053 201.501 2.94727V2.94824C205.72 3.3656 209.531 4.62125 213.39 6.71875C221.579 12.9581 223.547 22.7058 219.032 31.3193L219.022 31.3398L219.012 31.3594C217.221 34.9316 215.008 38.4701 212.38 41.5312L212.282 41.6455L212.199 41.7695C211.82 42.3362 211.328 42.931 210.729 43.6514C210.197 44.2912 209.57 45.0449 209.036 45.8232C201.57 54.6993 194.727 63.3714 186.92 71.6328L186.908 71.6445C183.519 75.279 180.217 79.2655 176.447 82.8643C172.718 86.4246 168.881 89.2395 164.798 90.4658L164.785 90.4697L164.17 90.6455C157.902 92.2814 150.214 89.4316 146.761 83.6738L146.749 83.6543L146.736 83.6338L146.378 83.0371C142.837 76.8705 143.94 70.3057 148.063 64.0918C150.314 60.9572 153.012 57.8013 155.804 54.5488L155.823 54.5254C156.894 53.2478 158.242 52.0129 159.801 50.4541C161.266 48.9886 162.868 47.2785 163.977 45.3418L164.015 45.2764L164.048 45.208C164.853 43.5796 164.853 41.8296 164.048 40.2012L163.976 40.0557L163.885 39.9199L163.704 39.666C162.777 38.4447 161.51 37.9012 160.45 37.6572C159.372 37.4092 158.273 37.4199 157.627 37.4199C150.633 37.4199 143.527 37.5354 136.447 37.6504C129.36 37.7655 122.298 37.8799 115.356 37.8799C112.054 37.8799 108.874 37.9966 105.745 38.1113C102.604 38.2266 99.5133 38.3398 96.3164 38.3398H96.1768L96.0371 38.3555C91.9611 38.8138 87.1156 39.2995 82.7842 42.5254C79.196 45.0869 76.6462 48.1666 74.6367 51.6777L74.6182 51.7119L74.5996 51.7451C70.5402 59.3716 70.958 68.4749 75.3564 75.6543C75.4762 76.13 75.6613 76.5385 75.7949 76.8047C76.0025 77.2183 76.2948 77.6919 76.6562 78.1123C85.4475 92.461 94.2463 106.354 103.024 120.218L103.048 120.254L103.072 120.29C108.319 127.973 113.205 135.977 118.103 143.81L120.203 147.155L127.166 158.293C128.568 160.624 130.345 163.072 131.719 165.187C133.18 167.436 134.443 169.669 135.275 172.162L135.28 172.177L135.286 172.191C138.395 181.125 131.844 190.534 122.256 192.617L122.218 192.625L122.179 192.635C113.983 194.69 105.297 191.004 100.735 183.952L5.54297 32.5693C-2.67986 19.4073 6.74485 2.50006 22.4668 2.5Z" stroke="white" stroke-width="5"/>
</svg>
