<svg width="429" height="188" viewBox="0 0 429 188" fill="none" xmlns="http://www.w3.org/2000/svg">
<path d="M223.851 168.7V155.804H218.664V152.325H232.768V155.804H227.581V168.7H223.851Z" fill="#4CAF50"/>
<path d="M241.859 168.7V152.325H245.589V168.7H241.859Z" fill="#4CAF50"/>
<path d="M263.466 169.033C261.81 169.033 260.347 168.674 259.071 167.95C257.789 167.215 256.789 166.21 256.071 164.929C255.347 163.653 254.987 162.179 254.987 160.512C254.987 158.846 255.347 157.377 256.071 156.096C256.789 154.82 257.784 153.82 259.05 153.096C260.326 152.361 261.789 151.991 263.446 151.991C264.831 151.991 266.102 152.262 267.258 152.804C268.409 153.335 269.373 154.085 270.154 155.054C270.946 156.012 271.498 157.148 271.821 158.45H267.987C267.664 157.549 267.112 156.84 266.321 156.325C265.529 155.799 264.602 155.533 263.55 155.533C262.633 155.533 261.81 155.741 261.091 156.158C260.367 156.575 259.8 157.158 259.383 157.908C258.977 158.658 258.779 159.528 258.779 160.512C258.779 161.502 258.977 162.366 259.383 163.116C259.8 163.866 260.362 164.45 261.071 164.866C261.789 165.283 262.612 165.491 263.529 165.491C264.612 165.491 265.555 165.215 266.362 164.658C267.164 164.106 267.742 163.361 268.091 162.429H271.925C271.659 163.752 271.133 164.908 270.341 165.908C269.55 166.898 268.56 167.668 267.383 168.221C266.201 168.762 264.893 169.033 263.466 169.033Z" fill="#4CAF50"/>
<path d="M289.03 169.033C287.332 169.033 285.827 168.674 284.509 167.95C283.186 167.215 282.155 166.21 281.405 164.929C280.665 163.653 280.301 162.179 280.301 160.512C280.301 158.846 280.665 157.377 281.405 156.096C282.155 154.82 283.186 153.82 284.509 153.096C285.827 152.361 287.332 151.991 289.03 151.991C290.749 151.991 292.264 152.361 293.572 153.096C294.874 153.82 295.905 154.82 296.655 156.096C297.405 157.377 297.78 158.846 297.78 160.512C297.78 162.179 297.405 163.653 296.655 164.929C295.905 166.21 294.874 167.215 293.572 167.95C292.264 168.674 290.749 169.033 289.03 169.033ZM284.092 160.512C284.092 161.502 284.301 162.366 284.717 163.116C285.145 163.866 285.728 164.45 286.467 164.866C287.217 165.283 288.072 165.491 289.03 165.491C290.014 165.491 290.874 165.283 291.613 164.866C292.363 164.45 292.936 163.866 293.342 163.116C293.759 162.366 293.967 161.502 293.967 160.512C293.967 159.528 293.759 158.658 293.342 157.908C292.936 157.158 292.363 156.575 291.613 156.158C290.874 155.741 290.014 155.533 289.03 155.533C288.072 155.533 287.217 155.741 286.467 156.158C285.728 156.575 285.145 157.158 284.717 157.908C284.301 158.658 284.092 159.528 284.092 160.512Z" fill="#4CAF50"/>
<path d="M324.823 169.033C323.459 169.033 322.282 168.809 321.282 168.366C320.292 167.908 319.532 167.262 318.99 166.429C318.448 165.585 318.178 164.606 318.178 163.491H321.844C321.844 164.273 322.105 164.882 322.636 165.325C323.178 165.757 323.896 165.971 324.803 165.971C325.579 165.971 326.198 165.82 326.657 165.512C327.115 165.21 327.344 164.783 327.344 164.241C327.344 163.658 327.063 163.189 326.511 162.825C325.969 162.465 325.12 162.158 323.969 161.908C322.053 161.507 320.626 160.898 319.698 160.075C318.782 159.241 318.323 158.168 318.323 156.846C318.323 155.346 318.865 154.168 319.948 153.304C321.042 152.429 322.537 151.991 324.428 151.991C325.719 151.991 326.834 152.215 327.782 152.658C328.74 153.106 329.48 153.731 330.011 154.533C330.537 155.34 330.803 156.299 330.803 157.408H327.219C327.219 156.674 326.975 156.096 326.49 155.679C326.001 155.252 325.329 155.033 324.469 155.033C323.688 155.033 323.073 155.189 322.615 155.491C322.167 155.799 321.948 156.221 321.948 156.762C321.948 157.262 322.198 157.689 322.698 158.033C323.198 158.382 324.073 158.7 325.323 158.991C327.365 159.481 328.834 160.132 329.74 160.95C330.641 161.757 331.094 162.804 331.094 164.096C331.094 165.637 330.537 166.846 329.428 167.721C328.313 168.596 326.782 169.033 324.823 169.033Z" fill="#4CAF50"/>
<path d="M340.546 168.7V152.325H343.713L349.546 160.825L355.338 152.325H358.483V168.7H354.775V158.846L350.796 164.658H348.233L344.254 158.825V168.7H340.546Z" fill="#4CAF50"/>
<path d="M367.08 168.7L373.58 152.325H377.226L383.747 168.7H379.768L378.664 165.866H372.164L371.059 168.7H367.08ZM373.122 162.95H377.726L375.414 156.95L373.122 162.95Z" fill="#4CAF50"/>
<path d="M392.343 168.7V152.325H399.343C400.593 152.325 401.676 152.554 402.593 153.012C403.509 153.46 404.218 154.106 404.718 154.95C405.218 155.783 405.468 156.794 405.468 157.971C405.468 159.169 405.197 160.2 404.655 161.075C404.114 161.939 403.348 162.585 402.364 163.012L405.759 168.7H401.447L398.53 163.596H396.072V168.7H392.343ZM396.03 160.471H398.864C399.78 160.471 400.478 160.257 400.968 159.825C401.468 159.398 401.718 158.783 401.718 157.991C401.718 157.189 401.468 156.575 400.968 156.158C400.478 155.731 399.78 155.512 398.864 155.512H396.03V160.471Z" fill="#4CAF50"/>
<path d="M419.185 168.7V155.804H413.997V152.325H428.101V155.804H422.914V168.7H419.185Z" fill="#4CAF50"/>
<mask id="mask0_1_181" style="mask-type:luminance" maskUnits="userSpaceOnUse" x="0" y="0" width="410" height="188">
<path d="M409.333 0H0V188H409.333V0Z" fill="white"/>
</mask>
<g mask="url(#mask0_1_181)">
<path d="M78.5599 10.9225L128.206 133.902H98.1016L88.9974 109.297H42.1849L33.1016 133.902H2.99741L52.6224 10.9225H78.5599ZM79.4557 84.7142L65.7474 48.9433H65.4557L51.7266 84.7142H79.4557Z" fill="#81A969" fill-opacity="0.4"/>
<path d="M121.647 152.693L143.251 142.11C147.219 148.662 154.131 151.943 163.98 151.943C168.548 151.943 172.792 150.475 176.709 147.547C180.636 144.615 182.605 140.115 182.605 134.047V128.381C177.938 133.547 169.589 136.131 157.563 136.131C146.532 136.131 137.443 132.235 130.292 124.443C123.136 116.641 119.563 107.079 119.563 95.7558C119.563 84.4225 123.136 74.834 130.292 66.985C137.443 59.1256 146.532 55.1933 157.563 55.1933C167.397 55.1933 175.594 58.2298 182.167 64.2975H182.605V57.4225H209.001V135.985C209.001 148.412 204.876 158.006 196.626 164.756C188.376 171.516 177.49 174.902 163.98 174.902C142.115 174.902 128.006 167.495 121.647 152.693ZM152.709 82.7767C149.292 86.1517 147.584 90.4798 147.584 95.7558C147.584 101.021 149.219 105.318 152.501 108.652C155.777 111.975 160.094 113.631 165.459 113.631C170.626 113.631 174.876 111.943 178.209 108.568C181.542 105.183 183.209 100.902 183.209 95.735C183.209 90.4746 181.49 86.1517 178.063 82.7767C174.631 79.4017 170.428 77.7142 165.459 77.7142C160.386 77.7142 156.136 79.4017 152.709 82.7767Z" fill="#81A969" fill-opacity="0.4"/>
<path d="M218.97 133.902V57.4225H245.366V68.4642H245.657C245.85 68.0631 246.168 67.5631 246.616 66.9642C247.074 66.3704 248.043 65.3287 249.532 63.8392C251.017 62.3548 252.605 61.0162 254.303 59.8183C255.996 58.6256 258.183 57.5579 260.866 56.61C263.543 55.6673 266.272 55.1933 269.053 55.1933C271.939 55.1933 274.772 55.5996 277.553 56.4017C280.345 57.1933 282.386 57.985 283.678 58.7767L285.761 59.9642L274.72 82.3183C271.439 79.5423 266.871 78.1517 261.011 78.1517C257.829 78.1517 255.095 78.8496 252.803 80.235C250.522 81.6256 248.913 83.3183 247.97 85.3183C247.022 87.3079 246.35 88.9954 245.949 90.3808C245.558 91.7715 245.366 92.86 245.366 93.6517V133.902H218.97Z" fill="#81A969" fill-opacity="0.4"/>
<path d="M78.5599 10.9225L128.206 133.902H98.1016L88.9974 109.297H42.1849L33.1016 133.902H2.99741L52.6224 10.9225H78.5599ZM79.4557 84.7142L65.7474 48.9433H65.4557L51.7266 84.7142H79.4557Z" fill="#0057A3"/>
<path d="M121.647 152.693L143.251 142.11C147.219 148.662 154.131 151.943 163.98 151.943C168.548 151.943 172.792 150.475 176.709 147.547C180.636 144.615 182.605 140.115 182.605 134.047V128.381C177.938 133.547 169.589 136.131 157.563 136.131C146.532 136.131 137.443 132.235 130.292 124.443C123.136 116.641 119.563 107.079 119.563 95.7558C119.563 84.4225 123.136 74.834 130.292 66.985C137.443 59.1256 146.532 55.1933 157.563 55.1933C167.397 55.1933 175.594 58.2298 182.167 64.2975H182.605V57.4225H209.001V135.985C209.001 148.412 204.876 158.006 196.626 164.756C188.376 171.516 177.49 174.902 163.98 174.902C142.115 174.902 128.006 167.495 121.647 152.693ZM152.709 82.7767C149.292 86.1517 147.584 90.4798 147.584 95.7558C147.584 101.021 149.219 105.318 152.501 108.652C155.777 111.975 160.094 113.631 165.459 113.631C170.626 113.631 174.876 111.943 178.209 108.568C181.542 105.183 183.209 100.902 183.209 95.735C183.209 90.4746 181.49 86.1517 178.063 82.7767C174.631 79.4017 170.428 77.7142 165.459 77.7142C160.386 77.7142 156.136 79.4017 152.709 82.7767Z" fill="#0057A3"/>
<path d="M218.97 133.902V57.4225H245.366V68.4642H245.657C245.85 68.0631 246.168 67.5631 246.616 66.9642C247.074 66.3704 248.043 65.3287 249.532 63.8392C251.017 62.3548 252.605 61.0162 254.303 59.8183C255.996 58.6256 258.183 57.5579 260.866 56.61C263.543 55.6673 266.272 55.1933 269.053 55.1933C271.939 55.1933 274.772 55.5996 277.553 56.4017C280.345 57.1933 282.386 57.985 283.678 58.7767L285.761 59.9642L274.72 82.3183C271.439 79.5423 266.871 78.1517 261.011 78.1517C257.829 78.1517 255.095 78.8496 252.803 80.235C250.522 81.6256 248.913 83.3183 247.97 85.3183C247.022 87.3079 246.35 88.9954 245.949 90.3808C245.558 91.7715 245.366 92.86 245.366 93.6517V133.902H218.97Z" fill="#0057A3"/>
</g>
<mask id="mask1_1_181" style="mask-type:luminance" maskUnits="userSpaceOnUse" x="306" y="57" width="62" height="77">
<path d="M306.667 57.3333H367.042V133.937H306.667V57.3333Z" fill="white"/>
</mask>
<g mask="url(#mask1_1_181)">
<path d="M366.74 93.6198C366.74 115.932 348.651 134.016 326.339 134.016C324.302 134.016 322.302 133.865 320.354 133.573C318.328 132.271 316.266 130.656 314.474 128.708C311.792 125.516 309.635 122.161 307.943 118.755C313.099 122.536 319.458 124.766 326.339 124.766C343.542 124.766 357.484 110.818 357.484 93.6198C357.484 81.7187 350.813 71.3802 341 66.1302C343.172 64.125 344.859 61.776 346.047 59.0729C346.135 58.8802 346.214 58.6875 346.292 58.4896C358.505 65.4375 366.74 78.5677 366.74 93.6198Z" fill="#8E5111"/>
</g>
<mask id="mask2_1_181" style="mask-type:luminance" maskUnits="userSpaceOnUse" x="280" y="32" width="66" height="100">
<path d="M280 32.9375H345.333V132H280V32.9375Z" fill="white"/>
</mask>
<g mask="url(#mask2_1_181)">
<path d="M311.5 131.203C298.141 115.297 296.776 95.4427 302.323 84.0365C306.99 74.4375 318.224 71.8125 329.24 68.2917C347.458 62.474 346.12 45.974 340.104 32.9375C330.521 50.7135 291.281 43.2656 282.078 78.0625C274.063 108.37 300.609 124.766 300.609 124.766C276.161 94.724 293.292 59.6198 324.224 54.5C303.75 63.6615 290.542 77.3177 293.464 100.141C296.141 121.036 311.5 131.203 311.5 131.203Z" fill="#4CAF50"/>
</g>
</svg>
